<svg t="1623835886321" class="icon" viewBox="0 0 1024 1024" version="1.1" xmlns="http://www.w3.org/2000/svg" p-id="4246" width="32" height="32"><path d="M512 0C282.25 0 96 186.25 96 416a414.7 414.7 0 0 0 121.84 294.16L512 1004.31l294.16-294.15A414.7 414.7 0 0 0 928 416C928 186.25 741.75 0 512 0z m248.9 664.9L512 913.8 263.1 664.9a352.24 352.24 0 1 1 497.8 0z" p-id="4247" fill="#999999"></path><path d="M512 256c-88.22 0-160 71.78-160 160s71.78 160 160 160 160-71.78 160-160-71.78-160-160-160z m0 256a96 96 0 1 1 96-96 96.11 96.11 0 0 1-96 96z" p-id="4248" fill="#999999"></path></svg>